{
	"asset":{
		"generator":"Khronos glTF Blender I/O v4.5.47",
		"version":"2.0"
	},
	"scene":0,
	"scenes":[
		{
			"name":"Scene",
			"nodes":[
				0
			]
		}
	],
	"nodes":[
		{
			"mesh":0,
			"name":"Plane.010",
			"rotation":[
				0,
				0,
				-0.7071066498756409,
				0.70710688829422
			],
			"scale":[
				15,
				15,
				15
			]
		}
	],
	"materials":[
		{
			"doubleSided":true,
			"name":"Material.006",
			"pbrMetallicRoughness":{
				"baseColorTexture":{
					"index":0
				},
				"metallicFactor":0,
				"roughnessFactor":0.5
			}
		}
	],
	"meshes":[
		{
			"name":"Plane.008",
			"primitives":[
				{
					"attributes":{
						"POSITION":0,
						"NORMAL":1,
						"TEXCOORD_0":2
					},
					"indices":3,
					"material":0
				}
			]
		}
	],
	"textures":[
		{
			"sampler":0,
			"source":0
		}
	],
	"images":[
		{
			"mimeType":"image/png",
			"name":"Untitled",
			"uri":"IMG/Untitled.png"
		}
	],
	"accessors":[
		{
			"bufferView":0,
			"componentType":5126,
			"count":6620,
			"max":[
				0.0247209370136261,
				0.04504694789648056,
				1.7269986551937677e-09
			],
			"min":[
				-0.0247209370136261,
				-0.05116372928023338,
				-0.005000008270144463
			],
			"type":"VEC3"
		},
		{
			"bufferView":1,
			"componentType":5126,
			"count":6620,
			"type":"VEC3"
		},
		{
			"bufferView":2,
			"componentType":5126,
			"count":6620,
			"type":"VEC2"
		},
		{
			"bufferView":3,
			"componentType":5123,
			"count":14580,
			"type":"SCALAR"
		}
	],
	"bufferViews":[
		{
			"buffer":0,
			"byteLength":79440,
			"byteOffset":0,
			"target":34962
		},
		{
			"buffer":0,
			"byteLength":79440,
			"byteOffset":79440,
			"target":34962
		},
		{
			"buffer":0,
			"byteLength":52960,
			"byteOffset":158880,
			"target":34962
		},
		{
			"buffer":0,
			"byteLength":29160,
			"byteOffset":211840,
			"target":34963
		}
	],
	"samplers":[
		{
			"magFilter":9729,
			"minFilter":9987
		}
	],
	"buffers":[
		{
			"byteLength":241000,
			"uri":"keychain.bin"
		}
	]
}
