<svg width="32" height="32" viewBox="0 0 32 32" fill="none" xmlns="http://www.w3.org/2000/svg">
<path fill-rule="evenodd" clip-rule="evenodd" d="M20.2311 14.3207L20.7694 14.859L19.8153 15.8131L18.0394 14.0373C17.7759 13.7738 17.7759 13.3466 18.0394 13.0831L19.8283 11.2943L20.7824 12.2485L20.0595 12.9713H23.5591V9.45873L22.9633 10.0545L22.0092 9.10037L23.785 7.32455C24.0485 7.06109 24.4756 7.06109 24.7391 7.32455L26.528 9.11342L25.5738 10.0675L24.9085 9.40225V12.9713H28.4624L27.7395 12.2485L28.6937 11.2943L30.4695 13.0701C30.733 13.3336 30.733 13.7608 30.4695 14.0243L28.6806 15.8131L27.7265 14.859L28.2647 14.3207H24.9085V17.817L25.5738 17.1517L26.528 18.1059L24.7522 19.8817C24.4887 20.1452 24.0615 20.1452 23.798 19.8817L22.0092 18.0929L22.9633 17.1387L23.5591 17.7345V14.3207H20.2311Z" fill="black"/>
<path fill-rule="evenodd" clip-rule="evenodd" d="M5.97643 22.8041H7.83549V25.3367H1.33398V22.8041H3.06338L8.91803 12.5016L6.26047 7.93749L8.44917 6.66309L17.8475 22.8041H19.5556V25.3367H13.0541V22.8041H14.9168L10.3922 15.0335L5.97643 22.8041Z" fill="black"/>
</svg>
