<svg width="52" height="52" viewBox="0 0 52 52" fill="none" xmlns="http://www.w3.org/2000/svg">
<g filter="url(#filter0_dii_2102_30400)">
<path d="M2 11C2 5.47715 6.47715 1 12 1H40C45.5228 1 50 5.47715 50 11V39C50 44.5228 45.5228 49 40 49H12C6.47715 49 2 44.5228 2 39V11Z" fill="#1570EF"/>
<path d="M12 2H40C44.9706 2 49 6.02944 49 11V39C49 43.9706 44.9706 48 40 48H12C7.02944 48 3 43.9706 3 39V11C3 6.02944 7.02944 2 12 2Z" stroke="url(#paint0_linear_2102_30400)" stroke-width="2"/>
<path d="M18.8662 14.0127C19.3175 13.9699 19.7724 14.0394 20.1904 14.2148C20.6084 14.3903 20.9772 14.6664 21.2627 15.0186C21.5479 15.3705 21.7419 15.7875 21.8271 16.2324C21.9124 16.6777 21.8862 17.1376 21.751 17.5703C21.6157 18.003 21.3754 18.3954 21.0518 18.7129L20.7783 18.9814L20.9668 19.3164L22.5703 22.1523L22.7705 22.5068L23.1582 22.3818C23.8519 22.1584 24.6062 22.2196 25.2549 22.5518C25.9035 22.8839 26.3939 23.46 26.6182 24.1533L26.7305 24.5H30.6084L30.6992 24.1152C30.8421 23.513 31.1844 22.9766 31.6699 22.5928C32.1556 22.2089 32.7569 21.9999 33.376 22C33.8926 22.0001 34.3992 22.1454 34.8369 22.4199C35.2745 22.6944 35.6255 23.0869 35.8506 23.5518C36.0757 24.0168 36.1657 24.5362 36.1094 25.0498C36.0531 25.5633 35.8526 26.0509 35.5322 26.4561C35.2118 26.8611 34.7835 27.1677 34.2969 27.3408C33.8102 27.5139 33.2846 27.5463 32.7803 27.4346C32.276 27.3228 31.8133 27.0715 31.4453 26.709C31.0773 26.3464 30.8184 25.8874 30.6992 25.3848L30.6084 25H26.7852L26.7188 25.4229C26.6547 25.8332 26.4992 26.224 26.2627 26.5654C26.0262 26.9068 25.7151 27.1903 25.3535 27.3945C24.9918 27.5988 24.5884 27.7189 24.1738 27.7451C23.7592 27.7713 23.3436 27.703 22.959 27.5459L22.5518 27.3799L22.335 27.7627L20.7803 30.5137L20.5752 30.876L20.8936 31.1426C21.4095 31.5759 21.7482 32.1839 21.8457 32.8506C21.9432 33.5175 21.7924 34.1977 21.4219 34.7607C21.0515 35.3234 20.4876 35.7309 19.8369 35.9053C19.1859 36.0796 18.4929 36.0085 17.8906 35.7061C17.2885 35.4036 16.8182 34.8908 16.5693 34.2646C16.3204 33.6383 16.3106 32.942 16.541 32.3086C16.7714 31.6753 17.2263 31.1481 17.8193 30.8281C18.4123 30.5083 19.1022 30.4172 19.7578 30.5723L20.124 30.6592L20.3086 30.332L21.9805 27.375L22.1543 27.0674L21.9229 26.8008C21.4891 26.3015 21.2502 25.6624 21.251 25.001V25C21.251 24.2322 21.5642 23.5387 22.0713 23.04L22.3447 22.7715L22.1562 22.4385L20.5537 19.5996L20.3535 19.2461L19.9658 19.3701C19.5535 19.5016 19.1157 19.5341 18.6885 19.4648C18.261 19.3955 17.8556 19.226 17.5059 18.9707C17.1562 18.7154 16.8721 18.381 16.6758 17.9951C16.4795 17.6093 16.3765 17.1828 16.376 16.75C16.376 16.2968 16.4881 15.8506 16.7021 15.4512C16.9163 15.0517 17.2261 14.7109 17.6035 14.46C17.981 14.209 18.415 14.0555 18.8662 14.0127ZM19.126 30.999C18.8305 30.9991 18.5376 31.0577 18.2646 31.1709C17.9919 31.284 17.7439 31.4494 17.5352 31.6582C17.3262 31.8672 17.1599 32.1156 17.0469 32.3887C16.9339 32.6617 16.8759 32.9545 16.876 33.25C16.8761 33.8468 17.114 34.4189 17.5361 34.8408C17.9582 35.2627 18.5302 35.5001 19.127 35.5C19.7238 35.4998 20.2968 35.2629 20.7188 34.8408C21.1406 34.4187 21.3771 33.8458 21.377 33.249C21.3769 32.9535 21.3192 32.6607 21.2061 32.3877C21.0929 32.1147 20.9268 31.8661 20.7178 31.6572C20.5088 31.4484 20.2603 31.2829 19.9873 31.1699C19.7142 31.0569 19.4215 30.9989 19.126 30.999ZM24.0137 22.75C23.7138 22.7427 23.415 22.7955 23.1357 22.9053C22.8567 23.015 22.6023 23.1793 22.3877 23.3887C22.1731 23.5981 22.0023 23.8487 21.8857 24.125C21.7692 24.4014 21.7091 24.699 21.709 24.999C21.7089 25.2988 21.7685 25.5957 21.8848 25.8721C22.0011 26.1486 22.1721 26.3997 22.3867 26.6094C22.6012 26.8189 22.8558 26.9829 23.1348 27.0928C23.4138 27.2026 23.7119 27.2561 24.0117 27.249C24.5989 27.2352 25.1579 26.9923 25.5684 26.5723C25.9789 26.1521 26.2088 25.5874 26.209 25C26.2091 24.4126 25.9796 23.8481 25.5693 23.4277C25.1592 23.0075 24.6007 22.7643 24.0137 22.75ZM33.376 22.5C32.7793 22.5001 32.2071 22.7373 31.7852 23.1592C31.3633 23.5811 31.126 24.1533 31.126 24.75C31.126 25.3467 31.3633 25.9189 31.7852 26.3408C32.2071 26.7627 32.7793 26.9999 33.376 27C33.9727 27 34.5449 26.7627 34.9668 26.3408C35.3887 25.9189 35.626 25.3467 35.626 24.75C35.626 24.1533 35.3888 23.5811 34.9668 23.1592C34.5448 22.7373 33.9727 22.5 33.376 22.5ZM19.126 14.5C18.5293 14.5001 17.9571 14.7373 17.5352 15.1592C17.1133 15.5811 16.876 16.1533 16.876 16.75C16.876 17.3467 17.1133 17.9189 17.5352 18.3408C17.9571 18.7627 18.5293 18.9999 19.126 19C19.7227 19 20.2949 18.7627 20.7168 18.3408C21.1387 17.9189 21.376 17.3467 21.376 16.75C21.376 16.1533 21.1388 15.5811 20.7168 15.1592C20.2948 14.7373 19.7227 14.5 19.126 14.5Z" fill="black" stroke="white"/>
</g>
<defs>
<filter id="filter0_dii_2102_30400" x="0" y="0" width="52" height="52" filterUnits="userSpaceOnUse" color-interpolation-filters="sRGB">
<feFlood flood-opacity="0" result="BackgroundImageFix"/>
<feColorMatrix in="SourceAlpha" type="matrix" values="0 0 0 0 0 0 0 0 0 0 0 0 0 0 0 0 0 0 127 0" result="hardAlpha"/>
<feOffset dy="1"/>
<feGaussianBlur stdDeviation="1"/>
<feColorMatrix type="matrix" values="0 0 0 0 0.0392157 0 0 0 0 0.0496732 0 0 0 0 0.0705882 0 0 0 0.05 0"/>
<feBlend mode="normal" in2="BackgroundImageFix" result="effect1_dropShadow_2102_30400"/>
<feBlend mode="normal" in="SourceGraphic" in2="effect1_dropShadow_2102_30400" result="shape"/>
<feColorMatrix in="SourceAlpha" type="matrix" values="0 0 0 0 0 0 0 0 0 0 0 0 0 0 0 0 0 0 127 0" result="hardAlpha"/>
<feOffset dy="-2"/>
<feComposite in2="hardAlpha" operator="arithmetic" k2="-1" k3="1"/>
<feColorMatrix type="matrix" values="0 0 0 0 0.0392157 0 0 0 0 0.0496732 0 0 0 0 0.0705882 0 0 0 0.05 0"/>
<feBlend mode="normal" in2="shape" result="effect2_innerShadow_2102_30400"/>
<feColorMatrix in="SourceAlpha" type="matrix" values="0 0 0 0 0 0 0 0 0 0 0 0 0 0 0 0 0 0 127 0" result="hardAlpha"/>
<feMorphology radius="1" operator="erode" in="SourceAlpha" result="effect3_innerShadow_2102_30400"/>
<feOffset/>
<feComposite in2="hardAlpha" operator="arithmetic" k2="-1" k3="1"/>
<feColorMatrix type="matrix" values="0 0 0 0 0.0392157 0 0 0 0 0.0496732 0 0 0 0 0.0705882 0 0 0 0.18 0"/>
<feBlend mode="normal" in2="effect2_innerShadow_2102_30400" result="effect3_innerShadow_2102_30400"/>
</filter>
<linearGradient id="paint0_linear_2102_30400" x1="26" y1="1" x2="26" y2="49" gradientUnits="userSpaceOnUse">
<stop stop-color="white" stop-opacity="0.12"/>
<stop offset="1" stop-color="white" stop-opacity="0"/>
</linearGradient>
</defs>
</svg>
